<svg xmlns="http://www.w3.org/2000/svg" xmlns:xlink="http://www.w3.org/1999/xlink" width="740" height="407.36"><rect width="740" height="407.36" rx="5" ry="5" class="a"/><svg y="0%" x="0%"><circle cx="20" cy="20" r="6" fill="#ff5f58"/><circle cx="40" cy="20" r="6" fill="#ffbd2e"/><circle cx="60" cy="20" r="6" fill="#18c132"/></svg><svg height="347.36" viewBox="0 0 70 34.736" width="700" x="15" xmlns="http://www.w3.org/2000/svg" xmlns:xlink="http://www.w3.org/1999/xlink" y="50"><style>@keyframes k{0%{transform:translateX(0)}.04%{transform:translateX(-70px)}13.73%{transform:translateX(-140px)}16.44%{transform:translateX(-210px)}16.48%{transform:translateX(-280px)}16.49%{transform:translateX(-420px)}32.32%{transform:translateX(-490px)}35.07%{transform:translateX(-560px)}36.29%{transform:translateX(-700px)}50.9%{transform:translateX(-770px)}53.52%{transform:translateX(-840px)}53.58%{transform:translateX(-910px)}53.59%{transform:translateX(-980px)}71.52%{transform:translateX(-1050px)}74.49%{transform:translateX(-1190px)}74.5%{transform:translateX(-1260px)}76.47%{transform:translateX(-1330px)}76.48%{transform:translateX(-1400px)}91.12%{transform:translateX(-1470px)}93.6%{transform:translateX(-1540px)}93.66%{transform:translateX(-1610px)}93.68%{transform:translateX(-1680px)}99.98%{transform:translateX(-1750px)}}.a{fill:#282d35}.f{white-space:pre}.f,.g{fill:#b9c0cb}.h{fill:#282d35;white-space:pre}</style><g font-family="Monaco,Consolas,Menlo,'Bitstream Vera Sans Mono','Powerline Symbols',monospace" font-size="1.67"><defs><symbol id="1"><text y="1.67" class="f">bash-5.3$</text></symbol><symbol id="2"><text y="1.67" class="f">bash-5.3$</text><path class="g" d="M10.02 0h15v2.171h-15z"/><text x="10.02" y="1.67" class="h">ls -lh vm.qcow2</text></symbol><symbol id="3"><text y="1.67" class="f">bash-5.3$</text><text x="10.02" y="1.67" class="f">ls</text><text x="13.026" y="1.67" class="f">-lh</text><text x="17.034" y="1.67" class="f">vm.qcow2</text></symbol><symbol id="4"><text y="1.67" class="f">-rw-r--r--</text><text x="11.022" y="1.67" class="f">1</text><text x="13.026" y="1.67" class="f">ivan</text><text x="18.036" y="1.67" class="f">ivan</text><text x="23.046" y="1.67" class="f">4.0G</text><text x="28.056" y="1.67" class="f">Jun</text><text x="33.066" y="1.67" class="f">8</text><text x="35.07" y="1.67" class="f">17:50</text><text x="41.082" y="1.67" class="f">vm.qcow2</text></symbol><symbol id="5"><text y="1.67" class="f">bash-5.3$</text><text x="10.02" y="1.67" class="f">spare</text><text x="16.032" y="1.67" class="f">-S</text><text x="19.038" y="1.67" class="f">-v</text><text x="22.044" y="1.67" class="f">p</text><text x="24.048" y="1.67" class="f">vm.spa</text><text x="31.062" y="1.67" class="f">vm.qcow2</text></symbol><symbol id="6"><text y="1.67" class="f">packed:</text><text x="8.016" y="1.67" class="f">&apos;vm.qcow2&apos;</text><text x="19.038" y="1.67" class="f">(58</text><text x="23.046" y="1.67" class="f">+</text><text x="25.05" y="1.67" class="f">8</text><text x="27.054" y="1.67" class="f">+</text><text x="29.058" y="1.67" class="f">16</text><text x="32.064" y="1.67" class="f">+</text><text x="34.068" y="1.67" class="f">104857600</text><text x="44.088" y="1.67" class="f">bytes)</text></symbol><symbol id="7"><text y="1.67" class="f">bash-5.3$</text><text x="10.02" y="1.67" class="f">ls</text><text x="13.026" y="1.67" class="f">-lh</text><text x="17.034" y="1.67" class="f">vm.spa</text></symbol><symbol id="8"><text y="1.67" class="f">-rw-r--r--</text><text x="11.022" y="1.67" class="f">1</text><text x="13.026" y="1.67" class="f">ivan</text><text x="18.036" y="1.67" class="f">ivan</text><text x="23.046" y="1.67" class="f">101M</text><text x="28.056" y="1.67" class="f">Jun</text><text x="33.066" y="1.67" class="f">8</text><text x="35.07" y="1.67" class="f">17:56</text><text x="41.082" y="1.67" class="f">vm.spa</text></symbol><symbol id="9"><text y="1.67" class="f">bash-5.3$</text><text x="10.02" y="1.67" class="f">spare</text><text x="16.032" y="1.67" class="f">-S</text><text x="19.038" y="1.67" class="f">-v</text><text x="22.044" y="1.67" class="f">u</text><text x="24.048" y="1.67" class="f">vm.spa</text></symbol><symbol id="10"><text y="1.67" class="f">&apos;vm.spa&apos;</text><text x="9.018" y="1.67" class="f">detected</text><text x="18.036" y="1.67" class="f">as</text><text x="21.042" y="1.67" class="f">SAR</text><text x="25.05" y="1.67" class="f">archive</text></symbol><symbol id="11"><text y="1.67" class="f">unpacked:</text><text x="10.02" y="1.67" class="f">&apos;vm.qcow2&apos;</text><text x="21.042" y="1.67" class="f">(4294967296</text><text x="33.066" y="1.67" class="f">bytes)</text></symbol><symbol id="a"><path fill="transparent" d="M0 0h70v17H0z"/></symbol><symbol id="b"><path fill="#6f7683" d="M0 0h1.102v2.171H0z"/></symbol></defs><path class="a" d="M0 0h70v34.736H0z"/><g style="animation-duration:23.757607s;animation-iteration-count:infinite;animation-name:k;animation-timing-function:steps(1,end)"><svg width="1820"><svg><use xlink:href="#a"/><use xlink:href="#b" x="-.004"/></svg><svg x="70"><use xlink:href="#a"/><use xlink:href="#b" x="9.996"/><use xlink:href="#1"/></svg><svg x="140"><use xlink:href="#a"/><use xlink:href="#b" x="24.996"/><use xlink:href="#2"/></svg><svg x="210"><use xlink:href="#a"/><use xlink:href="#b" x="-.004" y="2.146"/><use xlink:href="#3"/></svg><svg x="280"><use xlink:href="#a"/><use xlink:href="#b" x="-.004" y="4.317"/><use xlink:href="#3"/><use xlink:href="#4" y="2.171"/></svg><svg x="350"><use xlink:href="#a"/><use xlink:href="#b" x="-.004" y="4.317"/><use xlink:href="#3"/><use xlink:href="#4" y="2.171"/></svg><svg x="420"><use xlink:href="#a"/><use xlink:href="#b" x="9.996" y="4.317"/><use xlink:href="#3"/><use xlink:href="#4" y="2.171"/><use xlink:href="#1" y="4.342"/></svg><svg x="490"><use xlink:href="#a"/><use xlink:href="#b" x="38.996" y="4.317"/><use xlink:href="#3"/><use xlink:href="#4" y="2.171"/><text y="6.012" class="f">bash-5.3$</text><path class="g" d="M10.02 4.342h29v2.171h-29z"/><text x="10.02" y="6.012" class="h">spare -S -v p vm.spa vm.qcow2</text></svg><svg x="560"><use xlink:href="#a"/><use xlink:href="#b" x="-.004" y="6.488"/><use xlink:href="#3"/><use xlink:href="#4" y="2.171"/><use xlink:href="#5" y="4.342"/></svg><svg x="630"><use xlink:href="#a"/><use xlink:href="#b" x="-.004" y="8.659"/><use xlink:href="#3"/><use xlink:href="#4" y="2.171"/><use xlink:href="#5" y="4.342"/><use xlink:href="#6" y="6.513"/></svg><svg x="700"><use xlink:href="#a"/><use xlink:href="#b" x="9.996" y="8.659"/><use xlink:href="#3"/><use xlink:href="#4" y="2.171"/><use xlink:href="#5" y="4.342"/><use xlink:href="#6" y="6.513"/><use xlink:href="#1" y="8.684"/></svg><svg x="770"><use xlink:href="#a"/><use xlink:href="#b" x="22.996" y="8.659"/><use xlink:href="#3"/><use xlink:href="#4" y="2.171"/><use xlink:href="#5" y="4.342"/><use xlink:href="#6" y="6.513"/><text y="10.354" class="f">bash-5.3$</text><path class="g" d="M10.02 8.684h13v2.171h-13z"/><text x="10.02" y="10.354" class="h">ls -lh vm.spa</text></svg><svg x="840"><use xlink:href="#a"/><use xlink:href="#b" x="-.004" y="10.83"/><use xlink:href="#3"/><use xlink:href="#4" y="2.171"/><use xlink:href="#5" y="4.342"/><use xlink:href="#6" y="6.513"/><use xlink:href="#7" y="8.684"/></svg><svg x="910"><use xlink:href="#a"/><use xlink:href="#b" x="-.004" y="13.001"/><use xlink:href="#3"/><use xlink:href="#4" y="2.171"/><use xlink:href="#5" y="4.342"/><use xlink:href="#6" y="6.513"/><use xlink:href="#7" y="8.684"/><use xlink:href="#8" y="10.855"/></svg><svg x="980"><use xlink:href="#a"/><use xlink:href="#b" x="9.996" y="13.001"/><use xlink:href="#3"/><use xlink:href="#4" y="2.171"/><use xlink:href="#5" y="4.342"/><use xlink:href="#6" y="6.513"/><use xlink:href="#7" y="8.684"/><use xlink:href="#8" y="10.855"/><use xlink:href="#1" y="13.026"/></svg><svg x="1050"><use xlink:href="#a"/><use xlink:href="#b" x="29.996" y="13.001"/><use xlink:href="#3"/><use xlink:href="#4" y="2.171"/><use xlink:href="#5" y="4.342"/><use xlink:href="#6" y="6.513"/><use xlink:href="#7" y="8.684"/><use xlink:href="#8" y="10.855"/><text y="14.696" class="f">bash-5.3$</text><path class="g" d="M10.02 13.026h20v2.171h-20z"/><text x="10.02" y="14.696" class="h">spare -S -v u vm.spa</text></svg><svg x="1120"><use xlink:href="#a"/><use xlink:href="#b" x="-.004" y="15.172"/><use xlink:href="#3"/><use xlink:href="#4" y="2.171"/><use xlink:href="#5" y="4.342"/><use xlink:href="#6" y="6.513"/><use xlink:href="#7" y="8.684"/><use xlink:href="#8" y="10.855"/><use xlink:href="#9" y="13.026"/></svg><svg x="1190"><use xlink:href="#a"/><use xlink:href="#b" x="-.004" y="15.172"/><use xlink:href="#3"/><use xlink:href="#4" y="2.171"/><use xlink:href="#5" y="4.342"/><use xlink:href="#6" y="6.513"/><use xlink:href="#7" y="8.684"/><use xlink:href="#8" y="10.855"/><use xlink:href="#9" y="13.026"/></svg><svg x="1260"><use xlink:href="#a"/><use xlink:href="#b" x="-.004" y="17.343"/><use xlink:href="#3"/><use xlink:href="#4" y="2.171"/><use xlink:href="#5" y="4.342"/><use xlink:href="#6" y="6.513"/><use xlink:href="#7" y="8.684"/><use xlink:href="#8" y="10.855"/><use xlink:href="#9" y="13.026"/><use xlink:href="#10" y="15.197"/></svg><svg x="1330"><use xlink:href="#a"/><use xlink:href="#b" x="-.004" y="19.514"/><use xlink:href="#3"/><use xlink:href="#4" y="2.171"/><use xlink:href="#5" y="4.342"/><use xlink:href="#6" y="6.513"/><use xlink:href="#7" y="8.684"/><use xlink:href="#8" y="10.855"/><use xlink:href="#9" y="13.026"/><use xlink:href="#10" y="15.197"/><use xlink:href="#11" y="17.368"/></svg><svg x="1400"><use xlink:href="#a"/><use xlink:href="#b" x="9.996" y="19.514"/><use xlink:href="#3"/><use xlink:href="#4" y="2.171"/><use xlink:href="#5" y="4.342"/><use xlink:href="#6" y="6.513"/><use xlink:href="#7" y="8.684"/><use xlink:href="#8" y="10.855"/><use xlink:href="#9" y="13.026"/><use xlink:href="#10" y="15.197"/><use xlink:href="#11" y="17.368"/><use xlink:href="#1" y="19.539"/></svg><svg x="1470"><use xlink:href="#a"/><use xlink:href="#b" x="24.996" y="19.514"/><use xlink:href="#3"/><use xlink:href="#4" y="2.171"/><use xlink:href="#5" y="4.342"/><use xlink:href="#6" y="6.513"/><use xlink:href="#7" y="8.684"/><use xlink:href="#8" y="10.855"/><use xlink:href="#9" y="13.026"/><use xlink:href="#10" y="15.197"/><use xlink:href="#11" y="17.368"/><use xlink:href="#2" y="19.539"/></svg><svg x="1540"><use xlink:href="#a"/><use xlink:href="#b" x="-.004" y="21.685"/><use xlink:href="#3"/><use xlink:href="#4" y="2.171"/><use xlink:href="#5" y="4.342"/><use xlink:href="#6" y="6.513"/><use xlink:href="#7" y="8.684"/><use xlink:href="#8" y="10.855"/><use xlink:href="#9" y="13.026"/><use xlink:href="#10" y="15.197"/><use xlink:href="#11" y="17.368"/><use xlink:href="#3" y="19.539"/></svg><svg x="1610"><use xlink:href="#a"/><use xlink:href="#b" x="-.004" y="23.856"/><use xlink:href="#3"/><use xlink:href="#4" y="2.171"/><use xlink:href="#5" y="4.342"/><use xlink:href="#6" y="6.513"/><use xlink:href="#7" y="8.684"/><use xlink:href="#8" y="10.855"/><use xlink:href="#9" y="13.026"/><use xlink:href="#10" y="15.197"/><use xlink:href="#11" y="17.368"/><use xlink:href="#3" y="19.539"/><use xlink:href="#4" y="21.71"/></svg><svg x="1680"><use xlink:href="#a"/><use xlink:href="#b" x="9.996" y="23.856"/><use xlink:href="#3"/><use xlink:href="#4" y="2.171"/><use xlink:href="#5" y="4.342"/><use xlink:href="#6" y="6.513"/><use xlink:href="#7" y="8.684"/><use xlink:href="#8" y="10.855"/><use xlink:href="#9" y="13.026"/><use xlink:href="#10" y="15.197"/><use xlink:href="#11" y="17.368"/><use xlink:href="#3" y="19.539"/><use xlink:href="#4" y="21.71"/><use xlink:href="#1" y="23.881"/></svg><svg x="1750"><use xlink:href="#a"/><use xlink:href="#b" x="-.004" y="28.198"/><use xlink:href="#3"/><use xlink:href="#4" y="2.171"/><use xlink:href="#5" y="4.342"/><use xlink:href="#6" y="6.513"/><use xlink:href="#7" y="8.684"/><use xlink:href="#8" y="10.855"/><use xlink:href="#9" y="13.026"/><use xlink:href="#10" y="15.197"/><use xlink:href="#11" y="17.368"/><use xlink:href="#3" y="19.539"/><use xlink:href="#4" y="21.71"/><use xlink:href="#1" y="23.881"/><text y="27.722" class="f">exit</text></svg></svg></g></g></svg></svg>