<svg xmlns="http://www.w3.org/2000/svg" xmlns:xlink="http://www.w3.org/1999/xlink" width="640" height="363.94"><rect width="640" height="363.94" rx="5" ry="5" class="a"/><svg y="0%" x="0%"><circle cx="20" cy="20" r="6" fill="#ff5f58"/><circle cx="40" cy="20" r="6" fill="#ffbd2e"/><circle cx="60" cy="20" r="6" fill="#18c132"/></svg><svg height="303.94" viewBox="0 0 60 30.394" width="600" x="15" xmlns="http://www.w3.org/2000/svg" xmlns:xlink="http://www.w3.org/1999/xlink" y="50"><style>@keyframes i{0%{transform:translateX(0)}42.6%{transform:translateX(-60px)}69.9%{transform:translateX(-120px)}70.4%{transform:translateX(-180px)}70.6%{transform:translateX(-240px)}97.9%{transform:translateX(-300px)}98.8%{transform:translateX(-360px)}}.a{fill:#282d35}.f{fill:#b9c0cb;white-space:pre}</style><g font-family="Monaco,Consolas,Menlo,'Bitstream Vera Sans Mono','Powerline Symbols',monospace" font-size="1.67"><defs><symbol id="1"><text y="1.67" class="f">-rw-r--r--</text><text x="11.022" y="1.67" class="f">1</text><text x="13.026" y="1.67" class="f">ivan</text><text x="18.036" y="1.67" class="f">ivan</text><text x="23.046" y="1.67" class="f">4.0G</text><text x="28.056" y="1.67" class="f">Jun</text><text x="33.066" y="1.67" class="f">8</text><text x="35.07" y="1.67" class="f">17:44</text><text x="41.082" y="1.67" class="f">vm.qcow2</text></symbol><symbol id="2"><text y="1.67" class="f">packed:</text><text x="8.016" y="1.67" class="f">&apos;vm.qcow2&apos;</text><text x="19.038" y="1.67" class="f">(58</text><text x="23.046" y="1.67" class="f">+</text><text x="25.05" y="1.67" class="f">8</text><text x="27.054" y="1.67" class="f">+</text><text x="29.058" y="1.67" class="f">16</text><text x="32.064" y="1.67" class="f">+</text><text x="34.068" y="1.67" class="f">104857600</text><text x="44.088" y="1.67" class="f">bytes)</text></symbol><symbol id="3"><text y="1.67" class="f">-rw-r--r--</text><text x="11.022" y="1.67" class="f">1</text><text x="13.026" y="1.67" class="f">ivan</text><text x="18.036" y="1.67" class="f">ivan</text><text x="23.046" y="1.67" class="f">101M</text><text x="28.056" y="1.67" class="f">Jun</text><text x="33.066" y="1.67" class="f">8</text><text x="35.07" y="1.67" class="f">17:44</text><text x="41.082" y="1.67" class="f">vm.spa</text></symbol><symbol id="4"><text y="1.67" class="f">&apos;vm.spa&apos;</text><text x="9.018" y="1.67" class="f">detected</text><text x="18.036" y="1.67" class="f">as</text><text x="21.042" y="1.67" class="f">SAR</text><text x="25.05" y="1.67" class="f">archive</text></symbol><symbol id="5"><text y="1.67" class="f">unpacked:</text><text x="10.02" y="1.67" class="f">&apos;vm.qcow2&apos;</text><text x="21.042" y="1.67" class="f">(4294967296</text><text x="33.066" y="1.67" class="f">bytes)</text></symbol><symbol id="a"><path fill="transparent" d="M0 0h60v15H0z"/></symbol><symbol id="b"><path fill="#6f7683" d="M0 0h1.102v2.171H0z"/></symbol></defs><path class="a" d="M0 0h60v30.394H0z"/><g style="animation-duration:.934713s;animation-iteration-count:infinite;animation-name:i;animation-timing-function:steps(1,end)"><svg width="420"><svg><use xlink:href="#a"/><use xlink:href="#b" x="-.004"/></svg><svg x="60"><use xlink:href="#a"/><use xlink:href="#b" x="-.004" y="2.146"/><use xlink:href="#1"/></svg><svg x="120"><use xlink:href="#a"/><use xlink:href="#b" x="-.004" y="4.317"/><use xlink:href="#1"/><use xlink:href="#2" y="2.171"/></svg><svg x="180"><use xlink:href="#a"/><use xlink:href="#b" x="-.004" y="6.488"/><use xlink:href="#1"/><use xlink:href="#2" y="2.171"/><use xlink:href="#3" y="4.342"/></svg><svg x="240"><use xlink:href="#a"/><use xlink:href="#b" x="-.004" y="8.659"/><use xlink:href="#1"/><use xlink:href="#2" y="2.171"/><use xlink:href="#3" y="4.342"/><use xlink:href="#4" y="6.513"/></svg><svg x="300"><use xlink:href="#a"/><use xlink:href="#b" x="-.004" y="10.83"/><use xlink:href="#1"/><use xlink:href="#2" y="2.171"/><use xlink:href="#3" y="4.342"/><use xlink:href="#4" y="6.513"/><use xlink:href="#5" y="8.684"/></svg><svg x="360"><use xlink:href="#a"/><use xlink:href="#b" x="-.004" y="13.001"/><use xlink:href="#1"/><use xlink:href="#2" y="2.171"/><use xlink:href="#3" y="4.342"/><use xlink:href="#4" y="6.513"/><use xlink:href="#5" y="8.684"/><use xlink:href="#1" y="10.855"/></svg></svg></g></g></svg></svg>